<svg xmlns="http://www.w3.org/2000/svg" width="446pt" height="480" version="1.1" viewBox="0 0 446 360">
    <g id="surface270">
        <path fill="#ef5ba1" fill-opacity="1" fill-rule="nonzero" stroke="none" d="M4.5 24h234v96H4.5zm0 0" transform="scale(.75)"/>
        <path fill="none" stroke="#000" stroke-linecap="butt" stroke-linejoin="miter" stroke-miterlimit="10" stroke-opacity="1" stroke-width="1.5" d="M5.926 17.464c63.443 4.995 127.539 1.895 172.208-.36M4.014 18.788c39.203.108 78.565.181 176.218-.08m-1.319-2.027c.6 14.12 3.108 32.162.173 74.69m.847-73.86c.087 16.036-.363 29.088-.12 73.742m2.173-1.752c-59.296-1.151-119.516.32-177.334.161m175.8.727c-62.298.34-121.703-.882-176.465-.061m.72-1.56c-1.317-23.147.166-51.255.725-69.562m-2.35 71.005c.408-26.736-.45-52.828 1.677-71.865"/>
        <path fill="#f99c41" fill-opacity="1" fill-rule="nonzero" stroke="none" d="M274.5 24h234v96h-234zm0 0" transform="scale(.75)"/>
        <path fill="none" stroke="#000" stroke-linecap="butt" stroke-linejoin="miter" stroke-miterlimit="10" stroke-opacity="1" stroke-width="1.5" d="M206.212 18.794c37.684 4.245 74.318 5.895 171.583-1.776m-174.554 1.363c41.107 2.127 79.269 2.985 177.012 1.52m.835.888c1.075 15.912-.712 34.919.064 71.66m-1.921-72.782c-.08 9.035.456 25.055.397 70.274m.314 2.775c-68.886-.764-138.72-1.62-177.044-.612m176.892-1.199c-43.087-.21-86.247 1.21-176.139-.27m-.68 2.297c2.292-27.104-.755-49.356 3.056-74.337m-1.102 71.895c-.243-24.868-.404-46.673-.289-71.075"/>
        <path fill="#fff" fill-opacity="1" fill-rule="nonzero" stroke="none" d="M94.5 168h315v96h-315zm0 0" transform="scale(.75)"/>
        <path fill="none" stroke="#000" stroke-linecap="butt" stroke-linejoin="miter" stroke-miterlimit="10" stroke-opacity="1" stroke-width="1.5" d="M74.08 123.873c53.212-.855 107.355.292 234.234.076m-235.778-.126c93.378 2.549 188.104 2.238 236.862.592m-2.63.345c1.253 15.965 4.359 29.5.794 70.6m.055-71.156c.897 25.582 1.35 49.257.624 72.246m1.462.571c-63.686-2.677-130.573-2.593-238.477-2.979m236.681 1.424c-93.571.642-185.935-.606-236.068.407m-.867.937c-.159-26.314-.988-51.732-.355-73.14m1.998 72.88c-.812-20.558.797-37.436.533-72.378"/>
        <path fill="#27bdce" fill-opacity="1" fill-rule="nonzero" stroke="none" d="M4.5 312h234v96H4.5zm0 0" transform="scale(.75)"/>
        <path fill="none" stroke="#000" stroke-linecap="butt" stroke-linejoin="miter" stroke-miterlimit="10" stroke-opacity="1" stroke-width="1.5" d="M2.34 233.233c49.146 1.104 94.2 3.015 176.972.286m-175.278-.58c62.297-2.463 126.876-.97 174.449-.325m-1.658 1.395c1.626 16.248 1.584 32.82 2.399 72.421m-.083-73.977c.048 20.04-.813 40.104.393 72.958m-1.473 1.184c-46.11-1.773-90.191-2.833-175.357-1.398m175.576.888c-39.808-.638-78.489-1.59-174.85-1.814m.889-.999c-3.264-12.996-1.199-30.706-.098-70.242m-.535 73.017c-1.038-19.137-.399-38.728-.929-72.059"/>
        <path fill="#00aa5b" fill-opacity="1" fill-rule="nonzero" stroke="none" d="M274.5 312h234v96h-234zm0 0" transform="scale(.75)"/>
        <path fill="none" stroke="#000" stroke-linecap="butt" stroke-linejoin="miter" stroke-miterlimit="10" stroke-opacity="1" stroke-width="1.5" d="M202.82 233.906c41.402-4.327 80.308-2.915 179.26-1.603M205.457 235.2c61.029 3.163 120.621 3.015 174.243-.173m-1.052-2.632c2.737 18.856 2.192 42.15 1.325 74.681m-.935-73.66c.964 28.982 1.236 56.689.902 72.12m.615-.443c-41.976 2.554-83.443 4.386-176.159 3.073m175.87-1.749c-49.002.164-95.98.319-174.891.062m-2.927-1.21c1.515-20.306.938-39.733 1.691-72.943m1.233 74.817c-1.937-19.755-.662-38.493-1.313-73.786M90.553 88.199c3.053 7.998.235 10.197-.11 24.512m1.23-23.607c.102 5.665-.402 12.052-1.252 24.74m.947 95.708c-.583 6.316-1.632 11.962.85 26.35m-2.69-25.043c1.975 8.756 1.913 18.772 1.667 23.07M288.896 89.196c-2.458 8.71-3.011 17.26-1.623 23.952m1.45-24.86c-2.097 6.093-.483 12.284-.588 24.292"/>
        <path fill="none" stroke="#000" stroke-linecap="butt" stroke-linejoin="miter" stroke-miterlimit="10" stroke-opacity="1" stroke-width="1.5" d="M286.005 207.833c-.05 7.83-.098 19.927-.203 24.366m1.896-22.893c-1.069 5.455-1.304 14.508-.486 23.575"/>
    </g>
    <defs xmlns="http://www.w3.org/2000/svg">
        <filter id="dsFilterNoBlur" width="150%" height="150%">
            <feOffset dx="3" dy="3" in="SourceGraphic" result="offOut"/>
            <feColorMatrix in="offOut" result="matrixOut" type="matrix" values="0.2 0 0 0 0 0 0.2 0 0 0 0 0 0.2 0 0 0 0 0 1 0"/>
            <feBlend in="SourceGraphic" in2="matrixOut" mode="normal"/>
        </filter>
        <filter id="dsFilter" width="150%" height="150%">
            <feOffset dx="3" dy="3" in="SourceGraphic" result="offOut"/>
            <feColorMatrix in="offOut" result="matrixOut" type="matrix" values="0.2 0 0 0 0 0 0.2 0 0 0 0 0 0.2 0 0 0 0 0 1 0"/>
            <feGaussianBlur in="matrixOut" result="blurOut" stdDeviation="3"/>
            <feBlend in="SourceGraphic" in2="blurOut" mode="normal"/>
        </filter>
        <marker id="iPointer-rdyl5zcg8dh" fill="#000" markerHeight="7" markerUnits="strokeWidth" markerWidth="8" orient="auto" refX="5" refY="5" viewBox="0 0 10 10">
            <path d="M10 0v10L0 5z"/>
        </marker>
        <marker id="Pointer-rdyl5zcg8dh" fill="#000" markerHeight="7" markerUnits="strokeWidth" markerWidth="8" orient="auto" refX="5" refY="5" viewBox="0 0 10 10">
            <path d="M0 0l10 5-10 5z"/>
        </marker>
    </defs>
    <defs>
        <style type="text/css">
            @font-face{font-family:&quot;xkcd Script&quot;;src:url(./xkcd-script.ttf)}
        </style>
    </defs>
    <g xmlns="http://www.w3.org/2000/svg" id="lines-rdyl5zcg8dh" fill="none" stroke="#000" stroke-width="2" transform="scale(.75)">
        <g id="group425">
            <path id="path425" marker-end="url(#Pointer-rdyl5zcg8dh)" d="M121.5 120v32"/>
        </g>
        <g id="group436">
            <path id="path436" marker-start="url(#iPointer-rdyl5zcg8dh)" d="M121.5 280v32"/>
        </g>
        <g id="group1296">
            <path id="path1296" marker-end="url(#Pointer-rdyl5zcg8dh)" d="M382.5 120v32"/>
        </g>
        <g id="group1307">
            <path id="path1307" marker-start="url(#iPointer-rdyl5zcg8dh)" d="M382.5 280v32"/>
        </g>
    </g>
    <text id="text0" x="39.825" y="57.6" fill="#fff" stroke="none" font-family="xkcd Script" font-size="15">
        Vault operator
    </text>
    <text id="text1" x="242.325" y="57.6" fill="#fff" stroke="none" font-family="xkcd Script" font-size="15">
        MySQL operator
    </text>
    <text id="text2" x="154.575" y="165.6" fill="#000" stroke="none" font-family="xkcd Script" font-size="15">
        Kubernetes
    </text>
    <text id="text3" x="26.325" y="273.6" fill="#fff" stroke="none" font-family="xkcd Script" font-size="15">
        Jenkins X operator
    </text>
    <text id="text5" x="53.325" y="285.6" fill="#fff" stroke="none" font-family="xkcd Script" font-size="15">
        (Tekton)
    </text>
    <text id="text4" x="242.325" y="273.6" fill="#fff" stroke="none" font-family="xkcd Script" font-size="15">
        Kafka operator
    </text>
    <text id="text6" x="39.825" y="333.6" fill="#000" font-family="xkcd Script" font-size="15">
        Any cloud offering a managed Kubernetes service
    </text>
</svg>
