<svg xmlns="http://www.w3.org/2000/svg" width="568" height="320" version="1.1" viewBox="0 0 426 240">
    <g id="surface17">
        <path fill="#fff" fill-opacity="1" fill-rule="nonzero" stroke="none" d="M236.172 30.61c13.098-9.165 25.937-7.637 45.14-.91 21.563-5.759 43.989 7.585 29.887 20.722 18.637 10.879.598 28.746-14.32 25.5 7.793 6.363-14.945 18.586-37.668 7.058-30.66 10.891-40.61 1.239-43.895-8.199-23.527-3.87-7.625-26.125-1.543-29.37-18.277-10.216 7.766-21.727 22.399-14.802zm0 0" transform="scale(.75)"/>
        <path fill="none" stroke="#000" stroke-linecap="butt" stroke-linejoin="miter" stroke-miterlimit="10" stroke-opacity="1" stroke-width="1.5" d="M178.325 23.405c11.762-5.516 18.468-6.369 35.387-.129m-33.703-1.857c6.463-6.946 18.964-4.195 30.404-1.116m0 0c15.689-2.549 33.46 7.605 21.302 16.222m-20.977-15.697c13.99-6.288 30.457 3.38 20.013 17.282m0 0c14.344 7.177 1.371 19.531-12.507 20.205m12.976-20.449c12.82 10.28-1.834 19.694-11.549 17.025m0 0c6.492 6.043-13.222 15.858-28.77 6.91m27.824-5.815c6.064 5.274-11.241 14.016-29.868 3.39m0 0c-22.237 8.053-32.54 1.59-32.426-8.22m33.275 6.433c-22.43 11.25-29.86 4.383-32.238-4.656m0 0c-17.018-1.755-7.717-18.732-2.833-21.94m3.592 23.288c-19.134-4.837-5.093-22.696.366-25.65m0 0c-13.333-7.86 4.195-15.389 15.322-12.251M156.92 29.59c-12.172-7.383 7.034-18.55 20.698-9.6m-.363.377c.788-1.854.583.085.729 2.614m-.51-2.766c.449 3.36.827 4.441.743 3.155"/>
        <path fill="#fff" fill-opacity="1" fill-rule="nonzero" stroke="none" d="M393.293 27.934v36.855c-.004 1.68-.477 3.582 3.36 3.445h39.367c4.054 4.547-18.864 3.032-23.918 3.11-.38 11.457 11.707 15.242 31.421 14.86 20.02.417 33.192-3.266 32.34-14.755-4.437.114-29.273 1.188-25.765-3.386h44.527c2.95-.024 3.738-1 3.508-2.434V28.465c-.047-1.09-1.828-2.54-4.742-2.813H397.18c-2.22.032-4.032.383-3.887 2.282zm0 0" transform="scale(.75)"/>
        <path fill="none" stroke="#000" stroke-linecap="butt" stroke-linejoin="miter" stroke-miterlimit="10" stroke-opacity="1" stroke-width="1.5" d="M293.745 21.33c3.117 10.87.547 22.267 2.488 28.44m-.273-27.314c.982 7.363.22 12.577-.563 26.869m.285.673c1.245 1.611-.267 2.686 3.714 1.474m-3.088-2.848c-2.115 1.958-.27 6.533 3.159 5.79m1.966-2.031c6.351 5.762 18.61 6.166 28.177 1.555m-29.936-.454c8.034.074 16.571-.392 29.945-.117m-.624 1.046c3.633 5.37-14.177 2.766-19.38 3.26m17.282-3.301c5.198 6.065-13.614 3.203-17.03 2.303m0 0c-1.415 10.615 8.388 12.829 24.393 10.983m-22.343-9.957c-3.623 5.56 7.8 8.976 19.853 12.178m0 0c13.414-.498 24.351-1.96 26.161-9.103M330.87 71.441c17.347-2.742 28.363-4.488 23.265-11.877m0 0c-3.944-.76-23.719 2.223-19.59-1.451m20.709 3.083c-5.233-2.667-25.403 1.749-21.334-5.757m-.879-1.527c10.236-.465 16.348-1.321 34.213 2.839m-32.88-1.675c11.674-3.235 23.953-3.209 32.824-.112m.117.475c3.194 1.28 1.594-2.27 2.033-3.504m-.029 4.919c.156-2.588-.012-.756 3.194-2.573m.928-.061c-1.954-9.323-.234-22.348.384-31.175m-1.939 30.686c.65-6.36-.032-14.948.152-31.916m.475-.466c.896-1.65-.639-2.777-5.16-4.12m4.108 4.509c2.32-.99.448-3.847-.815-3.313m1.108 1.4c-21.074-6.307-43.694-6.73-74.036.12m72.287-1.857c-14.97-1.77-31.242-1.664-72.068 1.348m.554-1.011c-.287-1.075-2.915-1.315-3.908 2.517m2.191-.525c-2.2-3.665-.14-.811-2.396.9m-.103-.015c.25.26.976.278 1.491 1.028m-1.465-.996c.282 3.762.578 3.979 1.357 1.052"/>
        <path fill="#ef5ba1" fill-opacity="1" fill-rule="nonzero" stroke="none" d="M67.5 168h117v64h-117zm0 0" transform="scale(.75)"/>
        <path fill="none" stroke="#000" stroke-linecap="butt" stroke-linejoin="miter" stroke-miterlimit="10" stroke-opacity="1" stroke-width="1.5" d="M51.51 126.17c32.103.068 64.213.05 87.847-.987m-89.098.73c29.628.914 58.605 2.422 87.225.846m2.44-.569c-1.072 17.397-3.488 37.975-3.245 48.548m.855-48.178c1.383 11.039.062 22.898.422 46.755m-.222-.519c-29.985 2.534-62.219 1.104-89.327 3.102m89.411-2.068c-19.119-.55-37.834.027-87.765-.37m-.799 2.465c-.575-11.106 3.023-23.76 3.301-47.675m-1.921 45.767c-.812-12.093.483-25.89-.844-46.84"/>
        <path fill="#f99c41" fill-opacity="1" fill-rule="nonzero" stroke="none" d="M337.5 168h117v64h-117zm0 0" transform="scale(.75)"/>
        <path fill="none" stroke="#000" stroke-linecap="butt" stroke-linejoin="miter" stroke-miterlimit="10" stroke-opacity="1" stroke-width="1.5" d="M252.979 127.078c20.267-3.451 39.79-3.87 89.065-2.786m-88.12 1.222c31.8.038 65.136 1.125 87.546-.061m2.499.811c.05 12.987-2.25 23.991-1.705 48.967m.685-50.936c.196 11.56.557 23.18-.594 49.409m-1.973-2.423c-25.1-.539-50.34-1.807-87.823 3.803m90.22-2.985c-19.051 2.698-38.24 3.017-87.504.882m-1.69-1.114c.073-6.03-.083-14.79 1.312-24.448m-.41 24.914c-.538-5.315.003-12.422.387-23.775m-2.17 1.234c2.305-4.09 2.085-10.558 2.293-25.532m-1.33 24.058c.955-8.91.252-17.49 1.348-23.847m-165.8-12.085c.267-6.05.047-11.915-.653-21.006m1.629 22.052c-2.043-7.298-.15-15.334-1.319-23.092m.589-.724c48.685 3.85 96.161 5.033 203.587 1.485M88.5 90.651c70.986 3.902 142.371 2.771 203.736-.695m-.383-.946c1.08 7.731 2.106 16.468 1.474 22.693m-1.351-21.84c.45 11.651-1.151 19.31.337 24.817M145.6 147.953c23.938-2.253 49.385-1.032 101.757.022m-101.786.953c23.434 1.01 46.95 2.148 102.532-.926M194.262 63.8c.035 11.977 1.142 17.772-1.916 25.635m1.204-25.052c.19 5.387.873 12.615.747 25.573"/>
    </g>
    <defs xmlns="http://www.w3.org/2000/svg">
        <filter id="dsFilterNoBlur" width="150%" height="150%">
            <feOffset dx="3" dy="3" in="SourceGraphic" result="offOut"/>
            <feColorMatrix in="offOut" result="matrixOut" type="matrix" values="0.2 0 0 0 0 0 0.2 0 0 0 0 0 0.2 0 0 0 0 0 1 0"/>
            <feBlend in="SourceGraphic" in2="matrixOut" mode="normal"/>
        </filter>
        <filter id="dsFilter" width="150%" height="150%">
            <feOffset dx="3" dy="3" in="SourceGraphic" result="offOut"/>
            <feColorMatrix in="offOut" result="matrixOut" type="matrix" values="0.2 0 0 0 0 0 0.2 0 0 0 0 0 0.2 0 0 0 0 0 1 0"/>
            <feGaussianBlur in="matrixOut" result="blurOut" stdDeviation="3"/>
            <feBlend in="SourceGraphic" in2="blurOut" mode="normal"/>
        </filter>
        <marker id="iPointer-z9g7bazgsrl" fill="#000" markerHeight="7" markerUnits="strokeWidth" markerWidth="8" orient="auto" refX="5" refY="5" viewBox="0 0 10 10">
            <path d="M10 0v10L0 5z"/>
        </marker>
        <marker id="Pointer-z9g7bazgsrl" fill="#000" markerHeight="7" markerUnits="strokeWidth" markerWidth="8" orient="auto" refX="5" refY="5" viewBox="0 0 10 10">
            <path d="M0 0l10 5-10 5z"/>
        </marker>
    </defs>
    <defs>
        <style type="text/css">
            @font-face{font-family:&quot;xkcd Script&quot;;src:url(./xkcd-script.ttf)}
        </style>
    </defs>
    <g xmlns="http://www.w3.org/2000/svg" id="lines-z9g7bazgsrl" fill="none" stroke="#000" stroke-width="2" transform="scale(.75)">
        <g id="group293">
            <path id="path293" marker-end="url(#Pointer-z9g7bazgsrl)" marker-start="url(#iPointer-z9g7bazgsrl)" d="M121.5 152v-32h270v32"/>
        </g>
        <g id="group456">
            <path id="path456" marker-end="url(#Pointer-z9g7bazgsrl)" marker-start="url(#iPointer-z9g7bazgsrl)" d="M193.5 200h135"/>
        </g>
        <g id="group589">
            <path id="path589" d="M256.5 88v32"/>
        </g>
    </g>
    <text id="text0" x="161.325" y="45.6" fill="#000" stroke="none" font-family="xkcd Script" font-size="15">
        Users
    </text>
    <text id="text4" x="303.075" y="45.6" fill="#000" stroke="none" font-family="xkcd Script" font-size="15">
        Dashboard
    </text>
    <text id="text5" x="60.075" y="153.6" fill="#fff" stroke="none" font-family="xkcd Script" font-size="15">
        Service a
    </text>
    <text id="text6" x="262.575" y="153.6" fill="#fff" stroke="none" font-family="xkcd Script" font-size="15">
        Service b
    </text>
    <text id="text1" x="249.075" y="45.6" fill="#000" font-family="xkcd Script" font-size="15">
        -
    </text>
    <text id="text2" x="262.575" y="45.6" fill="#000" font-family="xkcd Script" font-size="15">
        -
    </text>
    <text id="text3" x="276.075" y="45.6" fill="#000" font-family="xkcd Script" font-size="15">
        -
    </text>
    <text id="text7" x="154.575" y="165.6" fill="#000" font-family="xkcd Script" font-size="15">
        mutual TLS
    </text>
    <text id="text8" x="154.575" y="201.6" fill="#000" font-family="xkcd Script" font-size="15">
        Service mesh
    </text>
    <text id="text9" x="154.575" y="213.6" fill="#000" font-family="xkcd Script" font-size="15">
        (layer 7)
    </text>
</svg>
