<svg class="marks" width="556" height="270" viewBox="0 0 556 270" version="1.1" xmlns="http://www.w3.org/2000/svg" xmlns:xlink="http://www.w3.org/1999/xlink"><g transform="translate(80,15)"><g class="mark-group role-frame root"><g transform="translate(0,0)"><path class="background" d="M0.5,0.5h400v200h-400Z" style="fill: none; stroke: #ddd;"></path><g><g class="mark-group role-axis"><g transform="translate(0.5,200.5)"><path class="background" d="M0,0h0v0h0Z" style="pointer-events: none; fill: none;"></path><g><g class="mark-rule role-axis-grid" style="pointer-events: none;"><line transform="translate(20,-200)" x2="0" y2="200" style="fill: none; stroke: #ddd; stroke-width: 1; opacity: 1;"></line><line transform="translate(50,-200)" x2="0" y2="200" style="fill: none; stroke: #ddd; stroke-width: 1; opacity: 1;"></line><line transform="translate(80,-200)" x2="0" y2="200" style="fill: none; stroke: #ddd; stroke-width: 1; opacity: 1;"></line><line transform="translate(110,-200)" x2="0" y2="200" style="fill: none; stroke: #ddd; stroke-width: 1; opacity: 1;"></line><line transform="translate(140,-200)" x2="0" y2="200" style="fill: none; stroke: #ddd; stroke-width: 1; opacity: 1;"></line><line transform="translate(170,-200)" x2="0" y2="200" style="fill: none; stroke: #ddd; stroke-width: 1; opacity: 1;"></line><line transform="translate(200,-200)" x2="0" y2="200" style="fill: none; stroke: #ddd; stroke-width: 1; opacity: 1;"></line><line transform="translate(230,-200)" x2="0" y2="200" style="fill: none; stroke: #ddd; stroke-width: 1; opacity: 1;"></line><line transform="translate(260,-200)" x2="0" y2="200" style="fill: none; stroke: #ddd; stroke-width: 1; opacity: 1;"></line><line transform="translate(290,-200)" x2="0" y2="200" style="fill: none; stroke: #ddd; stroke-width: 1; opacity: 1;"></line><line transform="translate(320,-200)" x2="0" y2="200" style="fill: none; stroke: #ddd; stroke-width: 1; opacity: 1;"></line><line transform="translate(350,-200)" x2="0" y2="200" style="fill: none; stroke: #ddd; stroke-width: 1; opacity: 1;"></line><line transform="translate(380,-200)" x2="0" y2="200" style="fill: none; stroke: #ddd; stroke-width: 1; opacity: 1;"></line></g></g></g></g><g class="mark-group role-axis"><g transform="translate(0.5,0.5)"><path class="background" d="M0,0h0v0h0Z" style="pointer-events: none; fill: none;"></path><g><g class="mark-rule role-axis-grid" style="pointer-events: none;"><line transform="translate(0,200)" x2="400" y2="0" style="fill: none; stroke: #ddd; stroke-width: 1; opacity: 1;"></line><line transform="translate(0,167)" x2="400" y2="0" style="fill: none; stroke: #ddd; stroke-width: 1; opacity: 1;"></line><line transform="translate(0,133)" x2="400" y2="0" style="fill: none; stroke: #ddd; stroke-width: 1; opacity: 1;"></line><line transform="translate(0,100)" x2="400" y2="0" style="fill: none; stroke: #ddd; stroke-width: 1; opacity: 1;"></line><line transform="translate(0,67)" x2="400" y2="0" style="fill: none; stroke: #ddd; stroke-width: 1; opacity: 1;"></line><line transform="translate(0,33)" x2="400" y2="0" style="fill: none; stroke: #ddd; stroke-width: 1; opacity: 1;"></line><line transform="translate(0,0)" x2="400" y2="0" style="fill: none; stroke: #ddd; stroke-width: 1; opacity: 1;"></line></g></g></g></g><g class="mark-rect role-mark marks"><path d="M10,198.33333333333334h20v1.6666666666666572h-20Z" style="fill: #fe17bf;"></path><path d="M39.97946611909651,198.33333333333334h20v1.6666666666666572h-20Z" style="fill: #fe17bf;"></path><path d="M69.95893223819301,196.66666666666666h20v3.333333333333343h-20Z" style="fill: #fe17bf;"></path><path d="M100.02053388090349,190h20v5h-20Z" style="fill: #fe17bf;"></path><path d="M130,185h20v6.666666666666657h-20Z" style="fill: #fe17bf;"></path><path d="M159.97946611909651,161.66666666666666h20v13.333333333333343h-20Z" style="fill: #fe17bf;"></path><path d="M189.958932238193,146.66666666666666h20v15h-20Z" style="fill: #fe17bf;"></path><path d="M220.0205338809035,131.66666666666669h20v16.66666666666663h-20Z" style="fill: #fe17bf;"></path><path d="M250,115h20v18.333333333333343h-20Z" style="fill: #fe17bf;"></path><path d="M279.9794661190965,100h20v18.33333333333333h-20Z" style="fill: #fe17bf;"></path><path d="M309.95893223819303,70h20v26.666666666666657h-20Z" style="fill: #fe17bf;"></path><path d="M340.0205338809035,50h20v26.666666666666657h-20Z" style="fill: #fe17bf;"></path><path d="M370,18.333333333333343h20v28.333333333333314h-20Z" style="fill: #fe17bf;"></path><path d="M10,200h20v0h-20Z" style="fill: #3364c0;"></path><path d="M39.97946611909651,200h20v0h-20Z" style="fill: #3364c0;"></path><path d="M69.95893223819301,200h20v0h-20Z" style="fill: #3364c0;"></path><path d="M100.02053388090349,200h20v0h-20Z" style="fill: #3364c0;"></path><path d="M130,196.66666666666666h20v0h-20Z" style="fill: #3364c0;"></path><path d="M159.97946611909651,180h20v6.666666666666657h-20Z" style="fill: #3364c0;"></path><path d="M189.958932238193,166.66666666666669h20v9.999999999999972h-20Z" style="fill: #3364c0;"></path><path d="M220.0205338809035,153.33333333333334h20v13.333333333333343h-20Z" style="fill: #3364c0;"></path><path d="M250,140h20v16.666666666666657h-20Z" style="fill: #3364c0;"></path><path d="M279.9794661190965,126.66666666666667h20v19.999999999999986h-20Z" style="fill: #3364c0;"></path><path d="M309.95893223819303,111.66666666666667h20v23.33333333333333h-20Z" style="fill: #3364c0;"></path><path d="M340.0205338809035,96.66666666666666h20v26.66666666666667h-20Z" style="fill: #3364c0;"></path><path d="M370,80h20v30h-20Z" style="fill: #3364c0;"></path><path d="M10,200h20v0h-20Z" style="fill: #27bdce;"></path><path d="M39.97946611909651,200h20v0h-20Z" style="fill: #27bdce;"></path><path d="M69.95893223819301,200h20v0h-20Z" style="fill: #27bdce;"></path><path d="M100.02053388090349,200h20v0h-20Z" style="fill: #27bdce;"></path><path d="M130,196.66666666666666h20v3.333333333333343h-20Z" style="fill: #27bdce;"></path><path d="M159.97946611909651,186.66666666666666h20v13.333333333333343h-20Z" style="fill: #27bdce;"></path><path d="M189.958932238193,176.66666666666666h20v23.333333333333343h-20Z" style="fill: #27bdce;"></path><path d="M220.0205338809035,166.66666666666669h20v33.333333333333314h-20Z" style="fill: #27bdce;"></path><path d="M250,156.66666666666666h20v43.33333333333334h-20Z" style="fill: #27bdce;"></path><path d="M279.9794661190965,146.66666666666666h20v53.33333333333334h-20Z" style="fill: #27bdce;"></path><path d="M309.95893223819303,135h20v65h-20Z" style="fill: #27bdce;"></path><path d="M340.0205338809035,123.33333333333333h20v76.66666666666667h-20Z" style="fill: #27bdce;"></path><path d="M370,110h20v90h-20Z" style="fill: #27bdce;"></path><path d="M69.95893223819301,200h20v0h-20Z" style="fill: #00aa5b;"></path><path d="M100.02053388090349,195h20v5h-20Z" style="fill: #00aa5b;"></path><path d="M130,191.66666666666666h20v5h-20Z" style="fill: #00aa5b;"></path><path d="M159.97946611909651,175h20v5h-20Z" style="fill: #00aa5b;"></path><path d="M189.958932238193,161.66666666666666h20v5.000000000000028h-20Z" style="fill: #00aa5b;"></path><path d="M220.0205338809035,148.33333333333331h20v5.000000000000028h-20Z" style="fill: #00aa5b;"></path><path d="M250,133.33333333333334h20v6.666666666666657h-20Z" style="fill: #00aa5b;"></path><path d="M279.9794661190965,118.33333333333333h20v8.333333333333343h-20Z" style="fill: #00aa5b;"></path><path d="M309.95893223819303,96.66666666666666h20v15.000000000000014h-20Z" style="fill: #00aa5b;"></path><path d="M340.0205338809035,76.66666666666666h20v20h-20Z" style="fill: #00aa5b;"></path><path d="M370,46.66666666666666h20v33.33333333333334h-20Z" style="fill: #00aa5b;"></path></g><g class="mark-group role-legend"><g transform="translate(418,0)"><path class="background" d="M0,0h53v70h-53Z" style="pointer-events: none; fill: none;"></path><g><g class="mark-group role-legend-entry"><g transform="translate(0,16)"><path class="background" d="M0,0h0v0h0Z" style="pointer-events: none; fill: none;"></path><g><g class="mark-group role-scope"><g transform="translate(0,0)"><path class="background" d="M0,0h49v12h-49Z" style="pointer-events: none; fill: none; opacity: 1;"></path><g><g class="mark-symbol role-legend-symbol" style="pointer-events: none;"><path transform="translate(6,6)" d="M-5,-5h10v10h-10Z" style="fill: #fe17bf; stroke-width: 1.5; opacity: 1;"></path></g><g class="mark-text role-legend-label" style="pointer-events: none;"><text text-anchor="start" transform="translate(16,9)" style="font-family: sans-serif; font-size: 10px; fill: #000; opacity: 1;">AMZN</text></g></g></g><g transform="translate(0,14)"><path class="background" d="M0,0h49v12h-49Z" style="pointer-events: none; fill: none; opacity: 1;"></path><g><g class="mark-symbol role-legend-symbol" style="pointer-events: none;"><path transform="translate(6,6)" d="M-5,-5h10v10h-10Z" style="fill: #3364c0; stroke-width: 1.5; opacity: 1;"></path></g><g class="mark-text role-legend-label" style="pointer-events: none;"><text text-anchor="start" transform="translate(16,9)" style="font-family: sans-serif; font-size: 10px; fill: #000; opacity: 1;">GOOG</text></g></g></g><g transform="translate(0,28)"><path class="background" d="M0,0h49v12h-49Z" style="pointer-events: none; fill: none; opacity: 1;"></path><g><g class="mark-symbol role-legend-symbol" style="pointer-events: none;"><path transform="translate(6,6)" d="M-5,-5h10v10h-10Z" style="fill: #27bdce; stroke-width: 1.5; opacity: 1;"></path></g><g class="mark-text role-legend-label" style="pointer-events: none;"><text text-anchor="start" transform="translate(16,9)" style="font-family: sans-serif; font-size: 10px; fill: #000; opacity: 1;">MSFT</text></g></g></g><g transform="translate(0,42)"><path class="background" d="M0,0h49v12h-49Z" style="pointer-events: none; fill: none; opacity: 1;"></path><g><g class="mark-symbol role-legend-symbol" style="pointer-events: none;"><path transform="translate(6,6)" d="M-5,-5h10v10h-10Z" style="fill: #00aa5b; stroke-width: 1.5; opacity: 1;"></path></g><g class="mark-text role-legend-label" style="pointer-events: none;"><text text-anchor="start" transform="translate(16,9)" style="font-family: sans-serif; font-size: 10px; fill: #000; opacity: 1;">BABA</text></g></g></g></g></g></g></g><g class="mark-text role-legend-title" style="pointer-events: none;"><text text-anchor="start" transform="translate(0,9)" style="font-family: sans-serif; font-size: 11px; font-weight: bold; fill: #000; opacity: 1;">symbol</text></g></g></g></g><g class="mark-group role-axis"><g transform="translate(0.5,200.5)"><path class="background" d="M0,0h0v0h0Z" style="pointer-events: none; fill: none;"></path><g><g class="mark-rule role-axis-tick" style="pointer-events: none;"><line transform="translate(20,0)" x2="0" y2="5" style="fill: none; stroke: #888; stroke-width: 1; opacity: 1;"></line><line transform="translate(50,0)" x2="0" y2="5" style="fill: none; stroke: #888; stroke-width: 1; opacity: 1;"></line><line transform="translate(80,0)" x2="0" y2="5" style="fill: none; stroke: #888; stroke-width: 1; opacity: 1;"></line><line transform="translate(110,0)" x2="0" y2="5" style="fill: none; stroke: #888; stroke-width: 1; opacity: 1;"></line><line transform="translate(140,0)" x2="0" y2="5" style="fill: none; stroke: #888; stroke-width: 1; opacity: 1;"></line><line transform="translate(170,0)" x2="0" y2="5" style="fill: none; stroke: #888; stroke-width: 1; opacity: 1;"></line><line transform="translate(200,0)" x2="0" y2="5" style="fill: none; stroke: #888; stroke-width: 1; opacity: 1;"></line><line transform="translate(230,0)" x2="0" y2="5" style="fill: none; stroke: #888; stroke-width: 1; opacity: 1;"></line><line transform="translate(260,0)" x2="0" y2="5" style="fill: none; stroke: #888; stroke-width: 1; opacity: 1;"></line><line transform="translate(290,0)" x2="0" y2="5" style="fill: none; stroke: #888; stroke-width: 1; opacity: 1;"></line><line transform="translate(320,0)" x2="0" y2="5" style="fill: none; stroke: #888; stroke-width: 1; opacity: 1;"></line><line transform="translate(350,0)" x2="0" y2="5" style="fill: none; stroke: #888; stroke-width: 1; opacity: 1;"></line><line transform="translate(380,0)" x2="0" y2="5" style="fill: none; stroke: #888; stroke-width: 1; opacity: 1;"></line></g><g class="mark-text role-axis-label" style="pointer-events: none;"><text text-anchor="middle" transform="translate(20,21)" style="font-family: sans-serif; font-size: 18px; fill: #000; opacity: 1;">2006</text><text text-anchor="middle" transform="translate(49.97946611909651,21)" style="font-family: sans-serif; font-size: 18px; fill: #000; opacity: 0;">2007</text><text text-anchor="middle" transform="translate(79.95893223819301,21)" style="font-family: sans-serif; font-size: 18px; fill: #000; opacity: 1;">2008</text><text text-anchor="middle" transform="translate(110.02053388090349,21)" style="font-family: sans-serif; font-size: 18px; fill: #000; opacity: 0;">2009</text><text text-anchor="middle" transform="translate(140,21)" style="font-family: sans-serif; font-size: 18px; fill: #000; opacity: 1;">2010</text><text text-anchor="middle" transform="translate(169.97946611909651,21)" style="font-family: sans-serif; font-size: 18px; fill: #000; opacity: 0;">2011</text><text text-anchor="middle" transform="translate(199.958932238193,21)" style="font-family: sans-serif; font-size: 18px; fill: #000; opacity: 1;">2012</text><text text-anchor="middle" transform="translate(230.0205338809035,21)" style="font-family: sans-serif; font-size: 18px; fill: #000; opacity: 0;">2013</text><text text-anchor="middle" transform="translate(260,21)" style="font-family: sans-serif; font-size: 18px; fill: #000; opacity: 1;">2014</text><text text-anchor="middle" transform="translate(289.9794661190965,21)" style="font-family: sans-serif; font-size: 18px; fill: #000; opacity: 0;">2015</text><text text-anchor="middle" transform="translate(319.95893223819303,21)" style="font-family: sans-serif; font-size: 18px; fill: #000; opacity: 1;">2016</text><text text-anchor="middle" transform="translate(350.0205338809035,21)" style="font-family: sans-serif; font-size: 18px; fill: #000; opacity: 0;">2017</text><text text-anchor="middle" transform="translate(380,21)" style="font-family: sans-serif; font-size: 18px; fill: #000; opacity: 1;">2018</text></g><g class="mark-rule role-axis-domain" style="pointer-events: none;"><line transform="translate(0,0)" x2="400" y2="0" style="fill: none; stroke: #888; stroke-width: 1; opacity: 1;"></line></g><g class="mark-text role-axis-title" style="pointer-events: none;"><text text-anchor="middle" transform="translate(200,44)" style="font-family: sans-serif; font-size: 18px; font-weight: bold; fill: #000; opacity: 1;">date (year)</text></g></g></g></g><g class="mark-group role-axis"><g transform="translate(0.5,0.5)"><path class="background" d="M0,0h0v0h0Z" style="pointer-events: none; fill: none;"></path><g><g class="mark-rule role-axis-tick" style="pointer-events: none;"><line transform="translate(0,200)" x2="-5" y2="0" style="fill: none; stroke: #888; stroke-width: 1; opacity: 1;"></line><line transform="translate(0,167)" x2="-5" y2="0" style="fill: none; stroke: #888; stroke-width: 1; opacity: 1;"></line><line transform="translate(0,133)" x2="-5" y2="0" style="fill: none; stroke: #888; stroke-width: 1; opacity: 1;"></line><line transform="translate(0,100)" x2="-5" y2="0" style="fill: none; stroke: #888; stroke-width: 1; opacity: 1;"></line><line transform="translate(0,67)" x2="-5" y2="0" style="fill: none; stroke: #888; stroke-width: 1; opacity: 1;"></line><line transform="translate(0,33)" x2="-5" y2="0" style="fill: none; stroke: #888; stroke-width: 1; opacity: 1;"></line><line transform="translate(0,0)" x2="-5" y2="0" style="fill: none; stroke: #888; stroke-width: 1; opacity: 1;"></line></g><g class="mark-text role-axis-label" style="pointer-events: none;"><text text-anchor="end" transform="translate(-7,205)" style="font-family: sans-serif; font-size: 18px; fill: #000; opacity: 1;">0</text><text text-anchor="end" transform="translate(-7,171.66666666666669)" style="font-family: sans-serif; font-size: 18px; fill: #000; opacity: 1;">20</text><text text-anchor="end" transform="translate(-7,138.33333333333334)" style="font-family: sans-serif; font-size: 18px; fill: #000; opacity: 1;">40</text><text text-anchor="end" transform="translate(-7,105)" style="font-family: sans-serif; font-size: 18px; fill: #000; opacity: 1;">60</text><text text-anchor="end" transform="translate(-7,71.66666666666669)" style="font-family: sans-serif; font-size: 18px; fill: #000; opacity: 1;">80</text><text text-anchor="end" transform="translate(-7,38.333333333333314)" style="font-family: sans-serif; font-size: 18px; fill: #000; opacity: 1;">100</text><text text-anchor="end" transform="translate(-7,5)" style="font-family: sans-serif; font-size: 18px; fill: #000; opacity: 1;">120</text></g><g class="mark-rule role-axis-domain" style="pointer-events: none;"><line transform="translate(0,200)" x2="0" y2="-200" style="fill: none; stroke: #888; stroke-width: 1; opacity: 1;"></line></g><g class="mark-text role-axis-title" style="pointer-events: none;"><text text-anchor="middle" transform="translate(-55,100) rotate(-90) translate(0,-4)" style="font-family: sans-serif; font-size: 18px; font-weight: bold; fill: #000; opacity: 1;">regions</text></g></g></g></g></g></g></g></g></svg>