<svg xmlns="http://www.w3.org/2000/svg" width="612" height="384" version="1.1" viewBox="0 0 459 288">
    <g id="surface246">
        <path fill="#ef5ba1" fill-opacity="1" fill-rule="nonzero" stroke="none" d="M4.5 8h243v96H4.5zm0 0" transform="scale(.75)"/>
        <path fill="none" stroke="#000" stroke-linecap="butt" stroke-linejoin="miter" stroke-miterlimit="10" stroke-opacity="1" stroke-width="1.5" d="M5.926 5.464c65.96 5.082 132.572 1.983 178.958-.36M4.014 6.788c40.696.093 81.557.166 182.968-.08m-1.319-2.027c.6 14.053 3.108 32.094.173 74.69m.847-73.86c.087 16.027-.363 29.079-.12 73.742m2.173-1.752c-61.532-1.151-123.984.32-184.084.161m182.55.727c-64.624.34-126.355-.882-183.215-.061m.72-1.56c-1.317-23.147.166-51.255.725-69.562m-2.35 71.005c.408-26.736-.45-52.828 1.677-71.865"/>
        <path fill="#f99c41" fill-opacity="1" fill-rule="nonzero" stroke="none" d="M301.5 8h234v96h-234zm0 0" transform="scale(.75)"/>
        <path fill="none" stroke="#000" stroke-linecap="butt" stroke-linejoin="miter" stroke-miterlimit="10" stroke-opacity="1" stroke-width="1.5" d="M226.462 6.794c37.684 4.485 74.318 6.135 171.583-1.776M223.491 6.381c41.107 2.253 79.269 3.108 177.012 1.52m.835.888c1.075 15.981-.712 34.992.064 71.66m-1.921-72.782c-.08 8.774.457 24.794.397 70.274m.314 2.775c-68.886-.689-138.72-1.545-177.044-.612m176.892-1.199c-43.087-.164-86.247 1.257-176.139-.27m-.68 2.297c2.292-27.055-.755-49.303 3.056-74.337m-1.101 71.895c-.243-24.933-.405-46.738-.29-71.075M117.907 150.946c1.618 18.777 1.782 41.646 2.541 97.377m-1.356-97.593c2.499 20.965 2.792 41.218.94 97.698m-.232-.756c-1.777 11.57 41.034 16.548 89.127 17.37m-89.164-19.306c-2.4 14.332 43.359 18.9 89.08 19.975m0 0c52.186 1.854 94.895-8.048 91.151-18.13m-92.218 20.087c53.004-3.172 92.364-7.474 92.588-21.267m-1.023.674c1.5-20.634-.038-42.285 1.905-96.357m-1.832 95.411c.275-29.713-1.125-55.679.056-96.332m.893.203c.557-9.33-41.226-18.756-89.924-19.638m88.673 17.965c.586-8.575-42.065-16.278-88.717-17.91m0 0c-51.847 1.358-92.531 8.898-91.663 21.12m91.44-19.651c-51.163 2.173-93.541 7.948-93.204 19.813m-.302-.342c1.043-.76 1.86-.393 3.492.286m-3.26.176c.867 1.251 1.948 1.31 2.944-.228"/>
        <path fill="none" stroke="#000" stroke-linecap="butt" stroke-linejoin="miter" stroke-miterlimit="10" stroke-opacity="1" stroke-width="1.5" d="M118.89 151.348c1.751 11.874 40.13 16.286 89.472 17.57m-88.907-16.436c-2.068 11.314 38.443 17.19 90.484 17.97m0 0c51.108.551 91.415-8.094 90.468-18.185m-88.869 16.744c47.25.427 87.724-6.72 90.07-16.928M190.885 42.77c14.054-2.93 21.732-2.25 30.806-3.62m-29.605 1.142c10.219 2.481 17.21 3.02 27.826 1.778"/>
        <path fill="none" stroke="#000" stroke-linecap="butt" stroke-linejoin="miter" stroke-miterlimit="10" stroke-opacity="1" stroke-width="1.5" d="M205.538 42.09c-.726 19.463 1.837 33.8-.27 72.806m.276-72.149c-.894 20.303-.735 42.214-.841 71.444"/>
    </g>
    <defs xmlns="http://www.w3.org/2000/svg">
        <filter id="dsFilterNoBlur" width="150%" height="150%">
            <feOffset dx="3" dy="3" in="SourceGraphic" result="offOut"/>
            <feColorMatrix in="offOut" result="matrixOut" type="matrix" values="0.2 0 0 0 0 0 0.2 0 0 0 0 0 0.2 0 0 0 0 0 1 0"/>
            <feBlend in="SourceGraphic" in2="matrixOut" mode="normal"/>
        </filter>
        <filter id="dsFilter" width="150%" height="150%">
            <feOffset dx="3" dy="3" in="SourceGraphic" result="offOut"/>
            <feColorMatrix in="offOut" result="matrixOut" type="matrix" values="0.2 0 0 0 0 0 0.2 0 0 0 0 0 0.2 0 0 0 0 0 1 0"/>
            <feGaussianBlur in="matrixOut" result="blurOut" stdDeviation="3"/>
            <feBlend in="SourceGraphic" in2="blurOut" mode="normal"/>
        </filter>
        <marker id="iPointer-yva25x9qdki" fill="#000" markerHeight="7" markerUnits="strokeWidth" markerWidth="8" orient="auto" refX="5" refY="5" viewBox="0 0 10 10">
            <path d="M10 0v10L0 5z"/>
        </marker>
        <marker id="Pointer-yva25x9qdki" fill="#000" markerHeight="7" markerUnits="strokeWidth" markerWidth="8" orient="auto" refX="5" refY="5" viewBox="0 0 10 10">
            <path d="M0 0l10 5-10 5z"/>
        </marker>
    </defs>
    <defs>
        <style type="text/css">
            @font-face{font-family:&quot;xkcd Script&quot;;src:url(./xkcd-script.ttf)}
        </style>
    </defs>
    <g xmlns="http://www.w3.org/2000/svg" id="lines-yva25x9qdki" fill="none" stroke="#000" stroke-width="2" transform="scale(.75)">
        <g id="group694">
            <path id="path694" marker-end="url(#Pointer-yva25x9qdki)" marker-start="url(#iPointer-yva25x9qdki)" d="M256.5 56h36"/>
        </g>
        <g id="group742">
            <path id="path742" marker-end="url(#Pointer-yva25x9qdki)" d="M274.5 56v96"/>
        </g>
    </g>
    <text id="text0" x="6.075" y="45.6" fill="#fff" stroke="none" font-family="xkcd Script" font-size="15">
        Custom Resource Definition
    </text>
    <text id="text2" x="19.575" y="57.6" fill="#fff" stroke="none" font-family="xkcd Script" font-size="15">
        (e.g. &quot;VaultService&quot;)
    </text>
    <text id="text1" x="282.825" y="45.6" fill="#fff" stroke="none" font-family="xkcd Script" font-size="15">
        Controller
    </text>
    <text id="text3" x="235.575" y="57.6" fill="#fff" stroke="none" font-family="xkcd Script" font-size="15">
        (backup, upgrade, etc.)
    </text>
    <text id="text4" x="141.075" y="189.6" fill="#000" stroke="none" font-family="xkcd Script" font-size="15">
        Cluster state (etcd)
    </text>
    <text id="text5" x="141.075" y="201.6" fill="#000" stroke="none" font-family="xkcd Script" font-size="15">
        Persistent Volumes
    </text>
    <text id="text6" x="174.825" y="213.6" fill="#000" stroke="none" font-family="xkcd Script" font-size="15">
        ConfigMaps
    </text>
    <text id="text7" x="188.325" y="225.6" fill="#000" stroke="none" font-family="xkcd Script" font-size="15">
        Secrets
    </text>
</svg>
